<svg width="631" height="251" viewBox="0 0 631 251" fill="none" xmlns="http://www.w3.org/2000/svg">
<path d="M-3.33786e-05 94.3636V1.27274H36.7272C43.7878 1.27274 49.803 2.62122 54.7727 5.31819C59.7424 7.98486 63.5303 11.697 66.1363 16.4546C68.7727 21.1818 70.0909 26.6364 70.0909 32.8182C70.0909 39 68.7575 44.4546 66.0909 49.1818C63.4242 53.9091 59.5606 57.5909 54.5 60.2273C49.4697 62.8636 43.3788 64.1818 36.2272 64.1818H12.8181V48.4091H33.0454C36.8333 48.4091 39.9545 47.7576 42.4091 46.4546C44.8939 45.1212 46.7424 43.2879 47.9545 40.9546C49.1969 38.5909 49.8181 35.8788 49.8181 32.8182C49.8181 29.7273 49.1969 27.0303 47.9545 24.7273C46.7424 22.3939 44.8939 20.5909 42.4091 19.3182C39.9242 18.0152 36.7727 17.3636 32.9545 17.3636H19.6818V94.3636H-3.33786e-05ZM102.557 1.27274V94.3636H82.875V1.27274H102.557ZM196.614 1.27274V94.3636H179.614L139.114 35.7727H138.432V94.3636H118.75V1.27274H136.023L176.205 59.8182H177.023V1.27274H196.614ZM290.739 1.27274V94.3636H273.739L233.239 35.7727H232.557V94.3636H212.875V1.27274H230.148L270.33 59.8182H271.148V1.27274H290.739ZM323.045 94.3636H301.955L334.091 1.27274H359.455L391.545 94.3636H370.455L347.136 22.5455H346.409L323.045 94.3636ZM321.727 57.7727H371.545V73.1364H321.727V57.7727ZM480.511 33.8636H460.602C460.239 31.2879 459.496 29 458.375 27C457.254 24.9697 455.814 23.2424 454.057 21.8182C452.299 20.3939 450.269 19.303 447.966 18.5455C445.693 17.7879 443.223 17.4091 440.557 17.4091C435.739 17.4091 431.542 18.6061 427.966 21C424.39 23.3636 421.617 26.8182 419.648 31.3636C417.678 35.8788 416.693 41.3636 416.693 47.8182C416.693 54.4546 417.678 60.0303 419.648 64.5455C421.648 69.0606 424.436 72.4697 428.011 74.7727C431.587 77.0758 435.723 78.2273 440.42 78.2273C443.057 78.2273 445.496 77.8788 447.739 77.1818C450.011 76.4849 452.026 75.4697 453.784 74.1364C455.542 72.7727 456.996 71.1212 458.148 69.1818C459.33 67.2424 460.148 65.0303 460.602 62.5455L480.511 62.6364C479.996 66.9091 478.708 71.0303 476.648 75C474.617 78.9394 471.875 82.4697 468.42 85.5909C464.996 88.6818 460.905 91.1364 456.148 92.9546C451.42 94.7424 446.072 95.6364 440.102 95.6364C431.799 95.6364 424.375 93.7576 417.83 90C411.314 86.2424 406.163 80.803 402.375 73.6818C398.617 66.5606 396.739 57.9394 396.739 47.8182C396.739 37.6667 398.648 29.0303 402.466 21.9091C406.284 14.7879 411.466 9.36364 418.011 5.63638C424.557 1.8788 431.92 7.62939e-06 440.102 7.62939e-06C445.496 7.62939e-06 450.496 0.757584 455.102 2.27274C459.739 3.78789 463.845 6.00001 467.42 8.9091C470.996 11.7879 473.905 15.3182 476.148 19.5C478.42 23.6818 479.875 28.4697 480.511 33.8636ZM494.625 94.3636V1.27274H514.307V78.1364H554.216V94.3636H494.625ZM567.25 94.3636V1.27274H629.977V17.5H586.932V39.6818H626.75V55.9091H586.932V78.1364H630.159V94.3636H567.25ZM160.392 172.5V156.273H236.847V172.5H208.347V249.364H188.892V172.5H160.392ZM306.937 156.273H326.619V216.727C326.619 223.515 324.998 229.455 321.756 234.545C318.544 239.636 314.044 243.606 308.256 246.455C302.468 249.273 295.725 250.682 288.028 250.682C280.301 250.682 273.544 249.273 267.756 246.455C261.968 243.606 257.468 239.636 254.256 234.545C251.044 229.455 249.437 223.515 249.437 216.727V156.273H269.119V215.045C269.119 218.591 269.892 221.742 271.437 224.5C273.013 227.258 275.225 229.424 278.074 231C280.922 232.576 284.24 233.364 288.028 233.364C291.847 233.364 295.165 232.576 297.983 231C300.831 229.424 303.028 227.258 304.574 224.5C306.15 221.742 306.937 218.591 306.937 215.045V156.273ZM342.812 249.364V156.273H380.085C386.934 156.273 392.646 157.288 397.222 159.318C401.797 161.348 405.237 164.167 407.54 167.773C409.843 171.348 410.994 175.47 410.994 180.136C410.994 183.773 410.267 186.97 408.812 189.727C407.358 192.455 405.358 194.697 402.812 196.455C400.297 198.182 397.419 199.409 394.176 200.136V201.045C397.722 201.197 401.04 202.197 404.131 204.045C407.252 205.894 409.782 208.485 411.722 211.818C413.661 215.121 414.631 219.061 414.631 223.636C414.631 228.576 413.403 232.985 410.949 236.864C408.525 240.712 404.934 243.758 400.176 246C395.419 248.242 389.555 249.364 382.585 249.364H342.812ZM362.494 233.273H378.54C384.025 233.273 388.025 232.227 390.54 230.136C393.055 228.015 394.312 225.197 394.312 221.682C394.312 219.106 393.691 216.833 392.449 214.864C391.206 212.894 389.434 211.348 387.131 210.227C384.858 209.106 382.146 208.545 378.994 208.545H362.494V233.273ZM362.494 195.227H377.085C379.782 195.227 382.176 194.758 384.267 193.818C386.388 192.848 388.055 191.485 389.267 189.727C390.509 187.97 391.131 185.864 391.131 183.409C391.131 180.045 389.934 177.333 387.54 175.273C385.176 173.212 381.812 172.182 377.449 172.182H362.494V195.227ZM477.937 183.045C477.574 179.379 476.013 176.53 473.256 174.5C470.498 172.47 466.756 171.455 462.028 171.455C458.816 171.455 456.104 171.909 453.892 172.818C451.68 173.697 449.983 174.924 448.801 176.5C447.65 178.076 447.074 179.864 447.074 181.864C447.013 183.53 447.362 184.985 448.119 186.227C448.907 187.47 449.983 188.545 451.347 189.455C452.71 190.333 454.286 191.106 456.074 191.773C457.862 192.409 459.771 192.955 461.801 193.409L470.165 195.409C474.225 196.318 477.953 197.53 481.347 199.045C484.74 200.561 487.68 202.424 490.165 204.636C492.65 206.848 494.574 209.455 495.937 212.455C497.331 215.455 498.044 218.894 498.074 222.773C498.044 228.47 496.589 233.409 493.71 237.591C490.862 241.742 486.74 244.97 481.347 247.273C475.983 249.545 469.513 250.682 461.937 250.682C454.422 250.682 447.877 249.53 442.301 247.227C436.756 244.924 432.422 241.515 429.301 237C426.21 232.455 424.589 226.833 424.437 220.136H443.483C443.695 223.258 444.589 225.864 446.165 227.955C447.771 230.015 449.907 231.576 452.574 232.636C455.271 233.667 458.316 234.182 461.71 234.182C465.044 234.182 467.937 233.697 470.392 232.727C472.877 231.758 474.801 230.409 476.165 228.682C477.528 226.955 478.21 224.97 478.21 222.727C478.21 220.636 477.589 218.879 476.347 217.455C475.134 216.03 473.347 214.818 470.983 213.818C468.65 212.818 465.786 211.909 462.392 211.091L452.256 208.545C444.407 206.636 438.21 203.652 433.665 199.591C429.119 195.53 426.862 190.061 426.892 183.182C426.862 177.545 428.362 172.621 431.392 168.409C434.453 164.197 438.65 160.909 443.983 158.545C449.316 156.182 455.377 155 462.165 155C469.074 155 475.104 156.182 480.256 158.545C485.437 160.909 489.468 164.197 492.347 168.409C495.225 172.621 496.71 177.5 496.801 183.045H477.937Z" fill="white"/>
</svg>
